<svg xmlns="http://www.w3.org/2000/svg"  viewBox="0 0 24 24" width="24px" height="24px" baseProfile="basic"><path fill="#313D41" d="M19,3H5C3.895,3,3,3.895,3,5v14c0,1.105,0.895,2,2,2h6.055c0.552,0,0.999-0.447,1-0.998l0.007-4.536	c0.001-0.447-0.364-0.812-0.811-0.812H10.36c-0.446,0-0.811-0.365-0.811-0.811v-1.044c0-0.446,0.365-0.811,0.811-0.811h0.892	c0.446,0,0.811-0.365,0.811-0.811v-0.963C12.062,7.287,13.491,6,15.923,6c0.557,0,0.987,0.02,1.319,0.039	C17.671,6.065,18,6.421,18,6.851l0,0.78c0,0.448-0.363,0.811-0.811,0.811h-0.851c-1.034,0-1.398,0.983-1.398,2.098v0.638	c0,0.446,0.365,0.811,0.811,0.811h1.277c0.502,0,0.886,0.448,0.809,0.944l-0.161,1.036c-0.061,0.394-0.401,0.685-0.8,0.685H15.75	c-0.446,0-0.811,0.365-0.811,0.811V20c0,0.552,0.448,1,1,1H19c1.105,0,2-0.895,2-2V5C21,3.895,20.105,3,19,3z"/></svg>