<svg xmlns="http://www.w3.org/2000/svg"  viewBox="0 0 24 24" width="24px" height="24px" baseProfile="basic"><path fill="#313D41" d="M19,3H5C3.895,3,3,3.895,3,5v14c0,1.105,0.895,2,2,2h14c1.105,0,2-0.895,2-2V5	C21,3.895,20.105,3,19,3z M8,17c0,0.553-0.447,1-1,1s-1-0.447-1-1v-7c0-0.553,0.447-1,1-1s1,0.447,1,1V17z M7,8C6.448,8,6,7.552,6,7	c0-0.552,0.448-1,1-1s1,0.448,1,1C8,7.552,7.552,8,7,8z M18,17c0,0.553-0.447,1-1,1s-1-0.447-1-1v-4.145	c0-1.158-0.498-1.655-1.15-1.836c-0.381-0.106-0.841-0.08-1.317,0.11C12.498,11.542,12,12.616,12,13.732V17c0,0.553-0.447,1-1,1	s-1-0.447-1-1v-7c0-0.553,0.447-1,1-1c0.253,0,0.478,0.095,0.649,0.251c0.256,0.234,0.613,0.324,0.925,0.172	c1.056-0.515,2.12-0.558,2.939-0.331C17.024,9.515,18,10.828,18,12.44V17z"/></svg>